Coordinates
version=1
nRows=17
nColumns=33
inDegrees=yes

Units are S.I. units (second, meters, Newtons, ...)
Angles are in degrees.

endheader
time	ground_thorax_rot_x	ground_thorax_rot_y	ground_thorax_rot_z	ground_thorax_tx	ground_thorax_ty	ground_thorax_tz	clav_prot_r	clav_elev_r	scapula_abduction_r	scapula_elevation_r	scapula_upward_rot_r	scapula_winging_r	shoulder_elv_r	plane_of_elev_r	axial_rot_r	elbow_flexion_r	pro_sup_r	wrist_flex_r	wrist_dev_r	clav_prot_l	clav_elev_l	scapula_abduction_l	scapula_elevation_l	scapula_upward_rot_l	scapula_winging_l	shoulder_elv_l	plane_of_elev_l	axial_rot_l	elbow_flexion_l	pro_sup_l	wrist_flex_l	wrist_dev_l	
7.9800	-41.273589	-5.365039	2.559341	-175.705052	904.481033	-5.706909	9.699475	-45.000000	40.579273	-45.000000	-28.862498	2059.881054	-2986.270539	147.825074	-99.771263	738.185597	72.295541	18.164701	3.566674	15.178316	39.619795	-41.577670	-45.000000	-39.905289	447.969518	-2446.158822	22.230932	-36.613035	1092.927986	46.071292	6.155152	-23.257531	
7.9900	-41.401676	-5.223789	2.406561	-172.951864	904.757211	-5.600235	9.557799	-45.000000	40.842075	-45.000000	-27.722722	2059.979243	-2986.206655	147.824756	-100.063699	738.299927	73.344204	18.111130	3.480326	15.238739	39.822702	-41.808535	-45.000000	-39.196063	448.039005	-2446.231045	22.290554	-36.170724	1092.744540	44.604104	6.374890	-23.256748	
8.0000	-41.538010	-5.087251	2.259880	-170.130199	904.785279	-5.474491	9.399977	-45.000000	41.098358	-45.000000	-26.557689	2060.086555	-2986.163525	147.843556	-100.336014	738.415566	74.423589	18.054187	3.398215	15.321366	40.039151	-42.042969	-45.000000	-38.485487	448.091869	-2446.329386	22.343700	-35.747208	1092.518232	42.748929	6.664016	-23.251320	
8.0100	-41.680880	-4.960500	2.119492	-167.244976	904.559000	-5.327029	9.228764	-45.000000	41.350147	-45.000000	-25.372850	2060.200039	-2986.146052	147.880100	-100.572653	738.535392	75.554803	17.987660	3.318502	15.415462	40.264011	-42.278684	-45.000000	-37.779626	448.128674	-2446.457954	22.389145	-35.350929	1092.246748	40.413705	7.039289	-23.234442	
8.0200	-41.828050	-4.838604	1.980160	-164.300226	904.074511	-5.155374	9.050217	-45.000000	41.591683	-45.000000	-24.188367	2060.318365	-2986.158096	147.923317	-100.773667	738.657255	76.746697	17.907171	3.240503	15.512106	40.487691	-42.510233	-45.000000	-37.084294	448.134715	-2446.603862	22.420788	-34.992136	1091.929413	37.546774	7.512065	-23.202031	
8.0300	-41.977059	-4.726858	1.837758	-161.299375	903.329697	-4.957322	8.871587	-45.000000	41.835367	-45.000000	-22.989434	2060.428937	-2986.211638	147.969249	-100.885661	738.786497	78.076970	17.787994	3.156289	15.561803	40.700019	-42.727012	-44.999999	-36.410900	448.112604	-2446.774085	22.445261	-34.688951	1091.548288	33.845948	8.146706	-23.140290	
8.0400	-42.128360	-4.633156	1.700909	-158.245129	902.323719	-4.730940	8.710396	-45.000000	42.067997	-45.000000	-21.862691	2060.549128	-2986.297088	148.007094	-101.005239	738.918628	79.471092	17.651464	3.073227	15.582836	40.900696	-42.930426	-44.999999	-35.750307	448.069440	-2446.966608	22.455223	-34.481216	1091.130775	29.594061	8.877935	-23.039923	
8.0500	-42.280350	-4.571160	1.577518	-155.140132	901.056498	-4.474644	8.573841	-45.000000	42.298757	-45.000000	-20.838312	2060.683981	-2986.413819	148.039195	-101.156893	739.047126	80.855625	17.505915	2.995572	15.561249	41.091880	-43.115932	-44.999997	-35.102207	448.023938	-2447.194863	22.465051	-34.367229	1090.702560	25.093397	9.653390	-22.897033	
8.0600	-42.431913	-4.538466	1.474177	-151.986874	899.528621	-4.187190	8.465298	-45.000000	42.509841	-45.000000	-19.967976	2060.848667	-2986.550601	148.061202	-101.416705	739.160149	82.073194	17.384829	2.934826	15.539201	41.276449	-43.291285	-44.999995	-34.463280	447.967531	-2447.441889	22.465173	-34.325694	1090.317827	20.983436	10.349113	-22.722648	
8.0700	-42.578267	-4.528822	1.388594	-148.788243	897.741256	-3.867765	8.368550	-45.000000	42.712918	-45.000000	-19.180005	2061.027531	-2986.714826	148.088188	-101.707910	739.254937	83.114107	17.286391	2.890560	15.519198	41.457970	-43.457844	-44.999991	-33.856472	447.893930	-2447.706301	22.469886	-34.299095	1089.982989	17.370893	10.957002	-22.522999	
8.0800	-42.717235	-4.532598	1.321397	-145.547088	895.696726	-3.516013	8.279897	-45.000000	42.893169	-45.000000	-18.492444	2061.228958	-2986.900195	148.119550	-102.069984	739.327062	83.896869	17.234739	2.869612	15.553031	41.636728	-43.625378	-44.999985	-33.291541	447.784400	-2447.968880	22.468467	-34.250720	1089.730310	14.628303	11.402828	-22.310593	
8.0900	-42.845650	-4.547444	1.268022	-142.266038	893.398685	-3.132149	8.184715	-45.000000	43.065259	-45.000000	-17.836787	2061.437362	-2987.116811	148.165479	-102.412626	739.380062	84.485007	17.210129	2.865466	15.624987	41.810975	-43.790806	-44.999972	-32.794094	447.636945	-2448.234572	22.477483	-34.130203	1089.538540	12.574561	11.734155	-22.090331	
8.1000	-42.962917	-4.565324	1.223355	-138.946912	890.852835	-2.717006	8.077974	-45.000000	43.225867	-45.000000	-17.195408	2061.650307	-2987.368043	148.226381	-102.716010	739.418655	84.935892	17.204130	2.874564	15.746765	41.977264	-43.956524	-44.999950	-32.372103	447.440695	-2448.496751	22.491190	-33.923230	1089.392088	11.025461	11.986401	-21.862816	
8.1100	-43.067676	-4.592273	1.187063	-135.590237	888.067225	-2.272059	7.958837	-45.000000	43.388401	-45.000000	-16.535158	2061.857152	-2987.660094	148.305945	-102.923040	739.450751	85.374075	17.189946	2.887626	15.880538	42.134293	-44.114344	-44.999911	-32.036430	447.204568	-2448.770773	22.522365	-33.638055	1089.244468	9.510733	12.252415	-21.620248	
8.1200	-43.162238	-4.632407	1.162407	-132.195004	885.052841	-1.799361	7.846588	-45.000000	43.545716	-45.000000	-15.929415	2062.070992	-2987.987405	148.390431	-103.115660	739.476313	85.776622	17.171795	2.905484	16.018944	42.278336	-44.260566	-44.999841	-31.766835	446.933997	-2449.057079	22.565563	-33.305219	1089.098367	8.061080	12.524598	-21.362239	
8.1300	-43.248505	-4.697884	1.158019	-128.758710	881.823456	-1.301402	7.749436	-45.000000	43.695825	-45.000000	-15.414949	2062.299553	-2988.344419	148.475396	-103.329706	739.492290	86.111681	17.151039	2.929017	16.137815	42.412013	-44.391644	-44.999715	-31.551929	446.646098	-2449.366870	22.628816	-32.942457	1088.948081	6.722029	12.793830	-21.092902	
8.1400	-43.326264	-4.786412	1.177121	-125.278073	878.395752	-0.780933	7.667102	-45.000000	43.833507	-45.000000	-14.999051	2062.545725	-2988.728388	148.561948	-103.578968	739.495066	86.348629	17.133296	2.960385	16.241120	42.535078	-44.510110	-44.999490	-31.388450	446.338527	-2449.697272	22.711826	-32.542926	1088.793512	5.524461	13.053691	-20.815974	
